<svg version="1.1" id="Layer_1" xmlns="http://www.w3.org/2000/svg" xmlns:xlink="http://www.w3.org/1999/xlink" x="0px" y="0px"
	 width="100%" viewBox="0 0 265 265" enable-background="new 0 0 265 265" xml:space="preserve">
<path fill="#FEFFFE" opacity="1.000000" stroke="none" 
	d="
M1.000000,102.000000 
	C1.000000,68.000000 1.000000,34.500000 1.000000,1.000000 
	C89.333336,1.000000 177.666672,1.000000 266.000000,1.000000 
	C266.000000,89.333336 266.000000,177.666672 266.000000,266.000000 
	C177.666672,266.000000 89.333336,266.000000 1.000000,266.000000 
	C1.000000,211.500000 1.000000,157.000000 1.000000,102.000000 
M179.343613,59.706734 
	C175.935867,52.943790 172.799622,46.026619 169.063751,39.450066 
	C161.329391,25.834641 143.899200,11.763476 122.862976,15.363217 
	C124.602921,16.641825 126.276779,18.259575 128.260345,19.268383 
	C144.680069,27.619204 154.100327,41.605942 160.283936,58.353069 
	C163.497742,67.057045 163.654343,67.115913 173.248596,66.949104 
	C176.977844,66.884270 180.236526,67.135284 181.486694,71.688904 
	C179.319504,71.814590 177.083252,71.647110 175.001953,72.137444 
	C172.163422,72.806160 169.443008,73.976257 166.043640,75.353531 
	C164.923752,75.950996 163.792480,77.084915 162.685745,77.061462 
	C153.433762,76.865387 144.183792,76.504379 134.942184,76.021347 
	C134.198868,75.982498 133.522507,74.662697 132.923340,73.085808 
	C133.006851,71.588936 132.481049,69.442703 133.272385,68.700180 
	C138.557129,63.741436 133.589386,59.549187 132.424225,55.193932 
	C131.619904,52.187443 130.081223,49.363392 128.750000,46.514217 
	C121.461624,30.915255 111.136421,18.657681 93.573105,14.140946 
	C89.590866,13.116840 81.168907,14.570464 78.685997,17.506948 
	C74.963516,21.909449 76.116623,26.550671 78.581429,30.963203 
	C80.436829,34.284760 82.763084,37.340950 84.832481,40.545784 
	C89.866814,48.342346 94.837479,56.180481 99.939796,63.932087 
	C100.541000,64.845444 101.762344,65.824577 102.768623,65.908867 
	C105.845024,66.166573 108.956764,66.002480 112.757317,66.002480 
	C109.200294,60.023521 106.299316,54.479927 102.755966,49.382889 
	C99.353004,44.487804 95.017014,40.242577 91.598076,35.356949 
	C89.123947,31.821440 87.478714,27.705866 85.463829,23.848974 
	C93.929344,24.247070 100.700706,26.828955 104.883438,32.622169 
	C111.153717,41.306705 117.028976,50.428547 121.743340,60.017742 
	C123.972885,64.552734 123.121040,70.602646 122.827103,75.859192 
	C105.600990,74.981720 88.374886,74.104248 71.110229,73.224815 
	C71.747894,67.243317 74.480003,64.847115 79.087555,65.296227 
	C82.270073,65.606445 85.472351,65.713959 89.975578,65.993301 
	C87.317879,62.646000 85.602310,60.485298 84.223030,58.748135 
	C76.730316,60.047791 69.714371,61.111717 62.764153,62.503750 
	C50.206715,65.018822 50.225842,65.101173 47.945274,77.679047 
	C42.375507,108.397675 36.629593,139.085739 31.298061,169.845642 
	C28.214382,187.636719 25.796722,205.543259 23.045109,223.622604 
	C24.937550,224.164032 26.489492,224.707870 28.084707,225.049866 
	C71.441864,234.345398 114.792801,243.670486 158.171738,252.863419 
	C169.035568,255.165710 179.991791,257.032074 190.927704,259.085083 
	C190.927704,259.085083 190.924194,259.104858 191.094437,259.455963 
	C191.416611,259.344208 191.738800,259.232452 192.782913,258.981476 
	C208.204956,252.700165 223.622192,246.407013 239.054108,240.150055 
	C241.423004,239.189560 243.821686,238.367218 243.312698,234.156067 
	C241.374741,217.417068 239.612976,200.655289 237.450562,183.945328 
	C235.173264,166.347534 232.757278,148.760269 229.957855,131.239349 
	C226.532394,109.800308 222.682434,88.428375 218.853653,67.056511 
	C218.653183,65.937561 216.936478,65.090240 215.068283,63.951973 
	C209.715347,63.350662 204.362427,62.749352 198.203979,61.945541 
	C195.486786,61.656441 192.769577,61.367336 189.207764,60.952316 
	C186.094070,60.699783 182.980377,60.447247 179.343613,59.706734 
M149.429810,61.078125 
	C148.023941,61.141773 146.618073,61.205421 145.161697,61.271358 
	C146.254593,67.694557 147.726120,68.328255 155.900665,66.234352 
	C155.621414,62.766338 154.092453,60.719646 149.429810,61.078125 
z"/>
<path fill="#92CC97" opacity="1.000000" stroke="none" 
	d="
M190.905548,259.098785 
	C179.991791,257.032074 169.035568,255.165710 158.171738,252.863419 
	C114.792801,243.670486 71.441864,234.345398 28.084707,225.049866 
	C26.489492,224.707870 24.937550,224.164032 23.045109,223.622604 
	C25.796722,205.543259 28.214382,187.636719 31.298061,169.845642 
	C36.629593,139.085739 42.375507,108.397675 47.945274,77.679047 
	C50.225842,65.101173 50.206715,65.018822 62.764153,62.503750 
	C69.714371,61.111717 76.730316,60.047791 84.223030,58.748135 
	C85.602310,60.485298 87.317879,62.646000 89.975578,65.993301 
	C85.472351,65.713959 82.270073,65.606445 79.087555,65.296227 
	C74.480003,64.847115 71.747894,67.243317 71.110229,73.224815 
	C88.374886,74.104248 105.600990,74.981720 123.699997,75.930077 
	C127.320274,75.313354 130.067657,74.625755 132.815033,73.938156 
	C133.522507,74.662697 134.198868,75.982498 134.942184,76.021347 
	C144.183792,76.504379 153.433762,76.865387 162.685745,77.061462 
	C163.792480,77.084915 164.923752,75.950996 166.723907,75.381340 
	C167.600220,76.870850 167.942673,78.329796 167.970200,79.794662 
	C168.360535,100.574387 168.707794,121.354904 169.067078,142.135208 
	C169.090073,143.466354 169.079712,144.800186 169.162933,146.127884 
	C170.418289,166.156235 171.969070,186.171494 172.839920,206.216354 
	C173.317047,217.198517 175.040665,227.604263 181.085159,237.255432 
	C181.415298,237.695480 181.681396,237.887405 181.920074,238.063354 
	C181.892670,238.047363 181.877731,238.109055 181.893372,238.465210 
	C182.916809,240.889038 183.924606,242.956696 185.028198,245.371765 
	C187.051163,250.179031 188.978363,254.638916 190.905548,259.098785 
M62.153008,188.677185 
	C62.010330,189.664062 61.926605,190.663757 61.715443,191.635757 
	C60.309830,198.105865 60.282150,198.185684 66.607300,199.641556 
	C85.528831,203.996796 104.474960,208.245407 123.389977,212.628494 
	C126.786812,213.415649 128.433380,212.910355 129.117905,208.941742 
	C132.557632,189.000061 136.315430,169.113083 139.984009,149.211060 
	C142.229813,137.027512 144.516129,124.851448 146.879456,112.160782 
	C123.732819,110.775360 101.242378,109.429214 78.080330,108.042870 
	C72.777039,134.869110 67.541824,161.350967 62.153008,188.677185 
z"/>
<path fill="#3AB254" opacity="1.000000" stroke="none" 
	d="
M215.925644,64.116463 
	C216.936478,65.090240 218.653183,65.937561 218.853653,67.056511 
	C222.682434,88.428375 226.532394,109.800308 229.957855,131.239349 
	C232.757278,148.760269 235.173264,166.347534 237.450562,183.945328 
	C239.612976,200.655289 241.374741,217.417068 242.775024,234.544205 
	C240.590408,233.886230 238.924423,232.868744 237.299866,231.788956 
	C230.892883,227.530426 224.498901,223.252350 218.076904,218.734589 
	C218.053726,218.487640 218.012268,217.993347 218.012726,217.555573 
	C217.678909,214.329163 217.373291,211.536728 217.005539,208.752518 
	C215.230988,195.317093 213.493668,181.876404 211.639008,168.451981 
	C209.830002,155.358093 207.848389,142.288086 206.027054,129.195847 
	C203.705124,112.505287 201.253021,95.827286 199.354904,79.087425 
	C198.914673,75.204956 195.532181,70.757469 200.434082,67.009171 
	C205.876923,66.042908 210.901291,65.079689 215.925644,64.116463 
z"/>
<path fill="#39B255" opacity="1.000000" stroke="none" 
	d="
M181.021103,237.007294 
	C175.040665,227.604263 173.317047,217.198517 172.839920,206.216354 
	C171.969070,186.171494 170.418289,166.156235 169.162933,146.127884 
	C169.079712,144.800186 169.090073,143.466354 169.067078,142.135208 
	C168.707794,121.354904 168.360535,100.574387 167.970200,79.794662 
	C167.942673,78.329796 167.600220,76.870850 167.038055,75.170273 
	C169.443008,73.976257 172.163422,72.806160 175.001953,72.137444 
	C177.083252,71.647110 179.319504,71.814590 182.091705,71.371880 
	C183.235229,71.011017 183.773743,70.967186 184.628448,70.950806 
	C185.580399,70.966385 186.216125,70.954506 187.261749,71.027489 
	C188.112350,72.247826 188.906723,73.373032 188.940079,74.520355 
	C189.357971,88.897820 189.624893,103.279671 190.037079,117.657341 
	C190.116776,120.437744 190.654022,123.205032 190.977081,126.449646 
	C191.016556,134.394119 190.732849,141.886292 191.165573,149.336838 
	C192.266830,168.298080 193.899033,187.229950 194.870773,206.196518 
	C195.224380,213.098068 194.309296,220.064621 193.707367,227.237305 
	C193.285355,228.645981 193.129028,229.818848 192.612579,231.001129 
	C188.794189,233.376694 185.335968,235.742874 181.877731,238.109055 
	C181.877731,238.109055 181.892670,238.047363 181.835999,237.830704 
	C181.601196,237.318558 181.348465,237.116302 181.021103,237.007294 
z"/>
<path fill="#298952" opacity="1.000000" stroke="none" 
	d="
M190.980194,125.978371 
	C190.654022,123.205032 190.116776,120.437744 190.037079,117.657341 
	C189.624893,103.279671 189.357971,88.897820 188.940079,74.520355 
	C188.906723,73.373032 188.112350,72.247826 187.327484,70.662613 
	C188.006332,67.167999 189.029358,64.123116 190.052383,61.078236 
	C192.769577,61.367336 195.486786,61.656441 198.650406,62.400951 
	C199.403091,64.241646 199.709335,65.626923 200.015594,67.012207 
	C195.532181,70.757469 198.914673,75.204956 199.354904,79.087425 
	C201.253021,95.827286 203.705124,112.505287 206.027054,129.195847 
	C207.848389,142.288086 209.830002,155.358093 211.639008,168.451981 
	C213.493668,181.876404 215.230988,195.317093 217.005539,208.752518 
	C217.373291,211.536728 217.678909,214.329163 217.669769,217.554077 
	C216.868805,217.993225 216.411209,217.996063 215.722107,218.000427 
	C215.490601,218.001953 215.027588,218.004883 214.965927,217.652267 
	C209.269913,214.862534 203.635574,212.425430 198.001282,209.531647 
	C197.003769,198.410522 195.819916,187.759338 195.057510,177.078110 
	C194.175720,164.724197 193.776779,152.336166 192.935898,139.978775 
	C192.616806,135.289337 191.651154,130.643875 190.980194,125.978371 
z"/>
<path fill="#288B51" opacity="1.000000" stroke="none" 
	d="
M215.027588,218.004883 
	C215.027588,218.004883 215.490601,218.001953 215.909882,218.250366 
	C216.919479,218.659698 217.509781,218.820618 218.100098,218.981522 
	C224.498901,223.252350 230.892883,227.530426 237.299866,231.788956 
	C238.924423,232.868744 240.590408,233.886230 242.586349,234.968338 
	C243.821686,238.367218 241.423004,239.189560 239.054108,240.150055 
	C223.622192,246.407013 208.204956,252.700165 192.138702,258.988953 
	C191.304398,259.032562 191.114304,259.068695 190.924194,259.104858 
	C190.924194,259.104858 190.927704,259.085083 190.916626,259.091919 
	C188.978363,254.638916 187.051163,250.179031 185.382156,245.328705 
	C190.578217,241.600494 192.720154,236.792786 192.972717,230.991730 
	C193.129028,229.818848 193.285355,228.645981 193.995697,227.001160 
	C195.700424,221.688980 196.851135,216.848740 198.373871,212.046295 
	C204.173126,214.057693 209.600357,216.031281 215.027588,218.004883 
z"/>
<path fill="#37B75B" opacity="1.000000" stroke="none" 
	d="
M132.869186,73.511978 
	C130.067657,74.625755 127.320274,75.313354 124.119095,75.983566 
	C123.121040,70.602646 123.972885,64.552734 121.743340,60.017742 
	C117.028976,50.428547 111.153717,41.306705 104.883438,32.622169 
	C100.700706,26.828955 93.929344,24.247070 85.463829,23.848974 
	C87.478714,27.705866 89.123947,31.821440 91.598076,35.356949 
	C95.017014,40.242577 99.353004,44.487804 102.755966,49.382889 
	C106.299316,54.479927 109.200294,60.023521 112.757317,66.002480 
	C108.956764,66.002480 105.845024,66.166573 102.768623,65.908867 
	C101.762344,65.824577 100.541000,64.845444 99.939796,63.932087 
	C94.837479,56.180481 89.866814,48.342346 84.832481,40.545784 
	C82.763084,37.340950 80.436829,34.284760 78.581429,30.963203 
	C76.116623,26.550671 74.963516,21.909449 78.685997,17.506948 
	C81.168907,14.570464 89.590866,13.116840 93.573105,14.140946 
	C111.136421,18.657681 121.461624,30.915255 128.750000,46.514217 
	C130.081223,49.363392 131.619904,52.187443 132.424225,55.193932 
	C133.589386,59.549187 138.557129,63.741436 133.272385,68.700180 
	C132.481049,69.442703 133.006851,71.588936 132.869186,73.511978 
z"/>
<path fill="#298D53" opacity="1.000000" stroke="none" 
	d="
M184.312241,70.923347 
	C183.773743,70.967186 183.235229,71.011017 182.292145,71.074326 
	C180.236526,67.135284 176.977844,66.884270 173.248596,66.949104 
	C163.654343,67.115913 163.497742,67.057045 160.283936,58.353069 
	C154.100327,41.605942 144.680069,27.619204 128.260345,19.268383 
	C126.276779,18.259575 124.602921,16.641825 122.862976,15.363217 
	C143.899200,11.763476 161.329391,25.834641 169.063751,39.450066 
	C172.799622,46.026619 175.935867,52.943790 179.644012,60.312225 
	C181.400360,64.252930 182.856293,67.588142 184.312241,70.923347 
z"/>
<path fill="#8BC894" opacity="1.000000" stroke="none" 
	d="
M184.628448,70.950806 
	C182.856293,67.588142 181.400360,64.252930 179.905548,60.556213 
	C182.980377,60.447247 186.094070,60.699783 189.630066,61.015274 
	C189.029358,64.123116 188.006332,67.167999 186.917603,70.577759 
	C186.216125,70.954506 185.580399,70.966385 184.628448,70.950806 
z"/>
<path fill="#90D098" opacity="1.000000" stroke="none" 
	d="
M149.857712,61.095284 
	C154.092453,60.719646 155.621414,62.766338 155.900665,66.234352 
	C147.726120,68.328255 146.254593,67.694557 145.161697,61.271358 
	C146.618073,61.205421 148.023941,61.141773 149.857712,61.095284 
z"/>
<path fill="#1D9047" opacity="1.000000" stroke="none" 
	d="
M200.434082,67.009171 
	C199.709335,65.626923 199.403091,64.241646 199.053162,62.502197 
	C204.362427,62.749352 209.715347,63.350662 215.496964,64.034218 
	C210.901291,65.079689 205.876923,66.042908 200.434082,67.009171 
z"/>
<path fill="#92CC97" opacity="1.000000" stroke="none" 
	d="
M191.009308,259.280396 
	C191.114304,259.068695 191.304398,259.032562 191.777740,259.058533 
	C191.738800,259.232452 191.416611,259.344208 191.009308,259.280396 
z"/>
<path fill="#FDFEFD" opacity="1.000000" stroke="none" 
	d="
M62.229813,188.255005 
	C67.541824,161.350967 72.777039,134.869110 78.080330,108.042870 
	C101.242378,109.429214 123.732819,110.775360 146.879456,112.160782 
	C144.516129,124.851448 142.229813,137.027512 139.984009,149.211060 
	C136.315430,169.113083 132.557632,189.000061 129.117905,208.941742 
	C128.433380,212.910355 126.786812,213.415649 123.389977,212.628494 
	C104.474960,208.245407 85.528831,203.996796 66.607300,199.641556 
	C60.282150,198.185684 60.309830,198.105865 61.715443,191.635757 
	C61.926605,190.663757 62.010330,189.664062 62.229813,188.255005 
M90.622131,155.632370 
	C88.938492,146.962601 90.420158,138.852753 94.753792,131.175232 
	C95.414406,130.004852 96.102165,127.998718 95.562592,127.206215 
	C94.798843,126.084450 92.697289,124.933342 91.542778,125.234306 
	C89.732666,125.706161 87.404297,127.038040 86.758072,128.607803 
	C84.570045,133.922745 82.297218,139.381790 81.366066,145.002655 
	C78.170944,164.289688 88.309372,178.351395 106.867401,180.580215 
	C112.621124,181.271225 118.637619,180.816299 123.060982,176.263016 
	C124.161339,175.130341 124.763191,172.386810 124.173973,170.977478 
	C123.003189,168.177094 120.831070,169.204956 118.450775,170.312164 
	C114.835739,171.993744 110.536064,174.549835 107.116798,173.850754 
	C98.107849,172.008774 92.272751,166.001495 90.622131,155.632370 
M104.507629,150.288162 
	C104.564758,154.422531 104.347282,158.587479 104.802521,162.677536 
	C105.009598,164.538040 106.454651,167.663361 107.501350,167.732162 
	C109.599380,167.870071 112.447556,166.881363 113.859283,165.331421 
	C119.005440,159.681458 123.430962,153.369644 128.638687,147.783295 
	C131.848892,144.339722 132.030090,141.154480 129.658203,137.666153 
	C128.586472,136.089951 126.730637,134.163742 125.128189,134.065460 
	C123.313766,133.954208 120.740402,135.238632 119.623657,136.749130 
	C115.989235,141.664963 112.869095,146.961029 110.182236,151.131088 
	C107.998764,150.465240 106.421890,149.984390 104.507629,150.288162 
z"/>
<path fill="#36AA55" opacity="1.000000" stroke="none" 
	d="
M192.612579,231.001129 
	C192.720154,236.792786 190.578217,241.600494 185.286377,244.981293 
	C183.924606,242.956696 182.916809,240.889038 181.893372,238.465210 
	C185.335968,235.742874 188.794189,233.376694 192.612579,231.001129 
z"/>
<path fill="#36AA55" opacity="1.000000" stroke="none" 
	d="
M181.085159,237.255432 
	C181.348465,237.116302 181.601196,237.318558 181.863403,237.846680 
	C181.681396,237.887405 181.415298,237.695480 181.085159,237.255432 
z"/>
<path fill="#207846" opacity="1.000000" stroke="none" 
	d="
M218.076904,218.734589 
	C217.509781,218.820618 216.919479,218.659698 216.141388,218.248840 
	C216.411209,217.996063 216.868805,217.993225 217.669327,217.991852 
	C218.012268,217.993347 218.053726,218.487640 218.076904,218.734589 
z"/>
<path fill="#287D54" opacity="1.000000" stroke="none" 
	d="
M198.001831,212.008499 
	C196.851135,216.848740 195.700424,221.688980 194.261383,226.765381 
	C194.309296,220.064621 195.224380,213.098068 194.870773,206.196518 
	C193.899033,187.229950 192.266830,168.298080 191.165573,149.336838 
	C190.732849,141.886292 191.016556,134.394119 190.977081,126.449646 
	C191.651154,130.643875 192.616806,135.289337 192.935898,139.978775 
	C193.776779,152.336166 194.175720,164.724197 195.057510,177.078110 
	C195.819916,187.759338 197.003769,198.410522 198.000519,209.868454 
	C198.000412,211.110779 198.001114,211.559647 198.001831,212.008499 
z"/>
<path fill="#207846" opacity="1.000000" stroke="none" 
	d="
M198.373871,212.046295 
	C198.001114,211.559647 198.000412,211.110779 198.000458,210.325119 
	C203.635574,212.425430 209.269913,214.862534 214.965927,217.652267 
	C209.600357,216.031281 204.173126,214.057693 198.373871,212.046295 
z"/>
<path fill="#3BBA5C" opacity="1.000000" stroke="none" 
	d="
M90.739426,156.044281 
	C92.272751,166.001495 98.107849,172.008774 107.116798,173.850754 
	C110.536064,174.549835 114.835739,171.993744 118.450775,170.312164 
	C120.831070,169.204956 123.003189,168.177094 124.173973,170.977478 
	C124.763191,172.386810 124.161339,175.130341 123.060982,176.263016 
	C118.637619,180.816299 112.621124,181.271225 106.867401,180.580215 
	C88.309372,178.351395 78.170944,164.289688 81.366066,145.002655 
	C82.297218,139.381790 84.570045,133.922745 86.758072,128.607803 
	C87.404297,127.038040 89.732666,125.706161 91.542778,125.234306 
	C92.697289,124.933342 94.798843,126.084450 95.562592,127.206215 
	C96.102165,127.998718 95.414406,130.004852 94.753792,131.175232 
	C90.420158,138.852753 88.938492,146.962601 90.739426,156.044281 
z"/>
<path fill="#39B85A" opacity="1.000000" stroke="none" 
	d="
M104.676315,149.895844 
	C106.421890,149.984390 107.998764,150.465240 110.182236,151.131088 
	C112.869095,146.961029 115.989235,141.664963 119.623657,136.749130 
	C120.740402,135.238632 123.313766,133.954208 125.128189,134.065460 
	C126.730637,134.163742 128.586472,136.089951 129.658203,137.666153 
	C132.030090,141.154480 131.848892,144.339722 128.638687,147.783295 
	C123.430962,153.369644 119.005440,159.681458 113.859283,165.331421 
	C112.447556,166.881363 109.599380,167.870071 107.501350,167.732162 
	C106.454651,167.663361 105.009598,164.538040 104.802521,162.677536 
	C104.347282,158.587479 104.564758,154.422531 104.676315,149.895844 
z"/>
</svg>